<?xml version="1.0" encoding="utf-8"?>
<!-- Generator: Adobe Illustrator 19.1.0, SVG Export Plug-In . SVG Version: 6.00 Build 0)  -->
<svg version="1.1" id="Layer_1" xmlns="http://www.w3.org/2000/svg" xmlns:xlink="http://www.w3.org/1999/xlink" x="0px" y="0px"
	 viewBox="0 0 400 150" style="enable-background:new 0 0 400 150;" xml:space="preserve">
<style type="text/css">
	.st0{fill:#231F20;}
</style>
<g>
	<g>
		<path class="st0" d="M84.1,32.5c0,0,6.7,13.7,5.5,19.4c0,0,17.6,5.7,19.5,15.1C109.1,66.9,118.7,54.3,84.1,32.5z"/>
		<path class="st0" d="M77.3,53c1.7,3.6,2.5,7.5,3.5,11.5l-10-3.8c0.9-6.1-5-15.3-5-15.3L77.3,53z"/>
		<path class="st0" d="M59.5,62.4c1.1,2.9,2.4,6.6,3,9.8l-9-2.2c0.9-6.1-4.8-13.4-4.8-13.4L59.5,62.4z"/>
		<path class="st0" d="M79.2,47.8c0,0,40.3,28.3,43,39.3c2,8.3-3.8,15.9-3.8,15.9s-3.1-21.6-80.3,11.2c7.8-8.7,12.1-19.9,10.9-31.9
			c-0.5-4.9-1.7-9.6-3.8-13.8L63.3,78c0,0.3,0,0.6,0.1,0.9c0.7,7.3,0.2,14.5-1.5,21.1c3.7-7.8,5.5-16.7,4.6-25.9
			c-0.5-5.6-1.9-10.9-4.1-15.7l19.3,12.9c0.1,0.6,0.1,1.3,0.2,1.9c0.8,8.1,0,16-2.1,23.2c4.5-8.4,6.8-18.2,5.8-28.3
			C84.9,60.7,82.7,53.9,79.2,47.8z"/>
	</g>
	<g>
		<g>
			<path class="st0" d="M128.4,83.8c0,11.6,9.6,19.7,21.8,19.2c7.3-0.3,11.6-3,13.1-3.7c0-2.2,0-6.1,0-10h0v0c0,0-0.7,0-1.5,0
				c-1.4,6.1-5.1,11.2-11.5,11.2c-7.9,0-14-7.7-14-16.7s6.2-16.7,14-16.7c6.4,0,10.1,5,11.5,11.2c0.8,0,1.5,0,1.5,0v0h0
				c0-3.9,0-7.8,0-10c-1.5-0.7-5.8-3.3-13.1-3.7C138,64.1,128.4,72.2,128.4,83.8z"/>
			<path class="st0" d="M185.9,64.6c-10.7,0-19,8.6-19,19.3c0,10.6,8.3,19.3,19,19.3c10.7,0,19-8.6,19-19.3
				C204.9,73.2,196.6,64.6,185.9,64.6z M185.9,100.8c-6.7,0-11.2-7.9-11.2-17c0-9,4.5-17,11.2-17c6.7,0,11.2,7.9,11.2,17
				C197.1,92.8,192.6,100.8,185.9,100.8z"/>
			<path class="st0" d="M248.5,72.5c0-3.1,3.2-5.6,6.5-5.7c3.6,0,7.2,1.6,9.1,8.6c0.2,0,1,0,1,0V67c-1.5-0.5-5.1-2.4-10.2-2.4
				c-6.2,0-12.4,3.8-12.4,10.9c0,12.7,17.4,10.3,17.4,18.8c0,4.3-2.6,6.3-6.6,6.3c-3.9,0-8.4-3.2-9.9-9.6c-0.7,0-1.3,0-1.3,0v9.2
				c1.6,0.5,5.7,2.9,11,2.9c9.2,0,13.7-6.1,13.7-11.6C266.9,77.9,248.5,82,248.5,72.5z"/>
			<path class="st0" d="M317.7,69.2c0-0.8,0.5-1.5,1.1-1.9l2.4-1.3v-0.6h-14.3v0.6l2.4,1.3c0.7,0.4,1.1,1.1,1.1,1.9v29.3
				c0,0.8-0.5,1.5-1.1,1.9l-2.4,1.3v0.6h14.3v-0.6l-2.4-1.3c-0.7-0.4-1.1-1.1-1.1-1.9V69.2z"/>
			<path class="st0" d="M205.2,65.4v0.6l2.4,1.3c0.7,0.4,1.1,1.1,1.1,1.9v29.3c0,0.8-0.5,1.5-1.1,1.9l-2.4,1.3v0.6h14.3v-0.6
				l-2.4-1.3c-0.7-0.4-1.1-1.1-1.1-1.9V69.2c0-0.5,0.2-0.9,0.4-1.3c0.2-0.3,0.5-0.4,0.9-0.4h4.6c2.8,0,5.8,3.3,5.8,7.4V77
				c0,4.1-2.7,6.9-5.8,6.9h-2.8c0,0,9,15.5,10.4,17.2c2,2.5,8.6,5.8,13.7,4.7c-5-2.7-9.7-11.3-13.6-18.5c-2.1-0.3-3.5-1-4.4-1.6
				c7.9,0,9.9-6.5,9.9-9.7c0-8.7-6.1-10.5-13-10.5H205.2z"/>
			<path class="st0" d="M324.2,65.4v0.6l2.4,1.3c0.7,0.4,1.1,1.1,1.1,1.9v29.3c0,0.8-0.5,1.5-1.1,1.9l-2.4,1.3v0.6h14.3v-0.6
				l-2.4-1.3c-0.7-0.4-1.1-1.1-1.1-1.9V69.2c0-0.5,0.2-0.9,0.4-1.3c0.2-0.3,0.5-0.4,0.9-0.4h4.6c2.8,0,5.8,3.3,5.8,7.4V77
				c0,4.1-2.7,6.9-5.8,6.9h-2.8c0,0,9,15.5,10.4,17.2c2,2.5,8.6,5.8,13.7,4.7c-5-2.7-9.7-11.3-13.6-18.5c-2.1-0.3-3.5-1-4.4-1.6
				c7.9,0,9.9-6.5,9.9-9.7c0-8.7-6.1-10.5-13-10.5H324.2z"/>
			<path class="st0" d="M302.6,100.4c-0.5-0.3-0.8-0.7-1-1.1L288,65.4h-4.4l-13.6,33.9c-0.2,0.5-0.5,0.9-1,1.1l-2.4,1.3v0.6h11v-0.6
				l-2.1-1.1c-0.7-0.4-1.2-1.1-1.2-2c0-0.3,0.1-0.6,0.2-0.8l3-7.4h12.8l3,7.4c0.1,0.2,0.1,0.5,0.1,0.7c0,0.7-0.3,1.3-0.8,1.7
				c-0.1,0.1-0.2,0.1-0.3,0.2l-2.4,1.3v0.6H305v-0.6L302.6,100.4z M278.4,87.7l5.3-13.2l5.3,13.2H278.4z"/>
		</g>
	</g>
</g>
</svg>
